<svg xmlns="http://www.w3.org/2000/svg" viewBox="0 0 1024 1024" fill="currentColor">
  <!-- Circulo interior (mas grueso) -->
  <circle cx="512" cy="512" r="318" fill="none" stroke="currentColor" stroke-width="20"/>
  <!-- Circulo exterior (mas delgado) -->
  <circle cx="512" cy="512" r="372" fill="none" stroke="currentColor" stroke-width="9"/>
  <!-- Monograma VM -->
  <path d="M0 0 C0.41652328491210255 -0.00047836303710369066 0.41652328491210255 -0.00047836303710369066 2.524383544921875 -0.002899169921875 C4.281067665217336 -0.0035784197428370135 6.037754323200147 -0.001741929620521887 7.79443359375 0.00244140625 C10.489314720528853 0.007806780439068461 13.184030204306282 0.0024808764528643223 15.87890625 -0.00390625 C17.58593786879203 -0.0032456882741200843 19.2929693843555 -0.001964980897469104 21 0 C21.80833282470701 -0.0020242309570335237 22.616665649414074 -0.0040484619140670475 23.449493408203125 -0.006134033203125 C29.13724971051056 0.017843605255308148 29.13724971051056 0.017843605255308148 31.3671875 1.1328125 C31.33818359374999 1.5453124999999943 31.33818359374999 1.5453124999999943 31.19140625 3.6328125 C30.928650858633205 10.35935051899071 31.287477380945745 15.786485470775801 33.39453125 22.203125 C33.61428619384765 22.87852325439451 33.834041137695294 23.553921508789074 34.060455322265625 24.249786376953125 C34.81518697491771 26.549117997235555 35.58888905704305 28.841354250095208 36.3671875 31.1328125 C36.651415710449214 31.97324096679688 36.93564392089843 32.81366943359376 37.228485107421875 33.6795654296875 C39.531326768623956 40.467888637872306 41.883141977627815 47.23885534260597 44.2421875 54.0078125 C44.608694152832015 55.06198364257813 44.97520080566403 56.116154785156255 45.352813720703125 57.2022705078125 C50.771014139116744 72.78588219853373 56.25508843611328 88.34552003175816 61.8046875 103.8828125 C61.96496429443357 104.33171844482422 61.96496429443357 104.33171844482422 62.77606201171875 106.60345458984375 C63.678685284697394 109.12938767304058 64.58300767111308 111.65470318983665 65.48828125 114.1796875 C65.75210098266604 114.9170211791992 66.01592071533202 115.65435485839845 66.28773498535156 116.41403198242188 C67.31337778281744 119.26745218887334 68.35016011437335 122.09317001229658 69.547119140625 124.8798828125 C70.3671875 127.1328125 70.3671875 127.1328125 70.3671875 131.1328125 C71.02718749999997 131.1328125 71.68718749999994 131.1328125 72.3671875 131.1328125 C72.55925781249994 129.8746875 72.75132812499999 128.6165625 72.94921875 127.3203125 C74.69393232889843 118.64685387278689 78.03161588355545 110.42301010630422 81.0546875 102.1328125 C81.72260324064973 100.28437303541284 82.38974472950918 98.43565363801008 83.05615234375 96.586669921875 C84.44727856437339 92.72902150555876 85.84175154033449 88.87260838363 87.23876953125 85.01708984375 C90.35764114862047 76.40317404581805 93.44296914813867 67.77727949863493 96.52505493164063 59.150146484375 C97.46618986024771 56.518021559560225 98.40998794972666 53.88686451078377 99.354248046875 51.255859375 C110.511019040404 20.11857583332187 110.511019040404 20.11857583332187 110.46484375 14.0234375 C110.46162109374995 13.269335937499989 110.45839843750002 12.515234374999977 110.455078125 11.73828125 C110.44669921875004 10.96097656249998 110.43832031249997 10.183671875000016 110.4296875 9.3828125 C110.42517578125 8.590039062500011 110.42066406250001 7.797265625000023 110.416015625 6.98046875 C110.40427314709052 5.031217417027136 110.3863389558652 3.082005119168798 110.3671875 1.1328125 C115.23612507341875 0.1327610067044418 119.8870802686821 0.07732525526881773 124.828125 0.25390625 C125.61869293212885 0.2775172424316281 126.40926086425782 0.30112823486328466 127.22378540039063 0.3254547119140625 C129.73012643445475 0.4015664670575063 132.236116618775 0.4858138564543708 134.7421875 0.5703125 C136.44920201421928 0.6235858613335381 138.15623326349976 0.6763258312781772 139.86328125 0.728515625 C144.03146898704176 0.8571098053799631 148.19936167995843 0.9929972568356789 152.3671875 1.1328125 C151.6569249496274 6.05836912647564 149.74899663583687 10.387508185118293 147.86328125 14.953125 C143.15043749514052 26.552297200562123 138.77967551845745 38.26873319670267 134.4296875 50.0078125 C133.59962221282183 52.242252740298284 132.76937786738324 54.476626470035114 131.93896484375 56.7109375 C125.04124544745093 75.27904072337077 118.17736455342106 93.85969519969865 111.31640625 112.44140625 C96.55804127787837 152.4097873013194 96.55804127787837 152.4097873013194 89.7421875 170.4453125 C89.43531005859381 171.26330322265625 89.12843261718751 172.0812939453125 88.812255859375 172.924072265625 C88.02130535114429 175.00427884524277 87.20102806655188 177.0695096932384 86.3671875 179.1328125 C86.14675781250003 179.69677734375 86.14675781250003 179.69677734375 85.03125 182.55078125 C83.3671875 185.1328125 83.3671875 185.1328125 80.75390625 186.49609375 C76.50951186556642 187.29405947625452 72.48731067949711 187.38669112158186 68.1796875 187.3203125 C67.37337890624997 187.31966796874997 66.5670703125 187.3190234375 65.736328125 187.318359375 C62.28407161863254 187.2925320195908 59.6755780907983 187.23560936359945 56.3671875 186.1328125 C51.42177736193082 177.38093516475027 48.51615011909945 167.15755054471435 45.157470703125 157.72265625 C41.99147017821974 148.8298722903229 38.72821888093773 139.97698401584887 35.4296875 131.1328125 C30.481832225482663 117.85701123922513 25.58072134923941 104.56457760492759 20.7027587890625 91.262939453125 C14.723964591694482 74.9622227270313 8.73728093903759 58.66436242926295 2.699859619140625 42.38525390625 C2.0334047372809323 40.58714751046523 1.3679747808021716 38.78866081042543 0.703704833984375 36.98974609375 C-2.8516828184228302 27.36482426340865 -6.50145982385925 17.80407684352508 -10.516281127929688 8.3597412109375 C-12.6328125 3.3384952959424083 -12.6328125 3.3384952959424083 -12.6328125 1.1328125 C-8.426167110779431 -0.04588475570335504 -4.339185546221529 -0.010920905735957831 0 0 Z " fill="currentColor" transform="translate(443.6328125,249.8671875)"/>
<path d="M0 0 C0.6152968168258894 0.00046089649202940564 0.6152968168258894 0.00046089649202940564 3.729071617126465 0.0027933120727539063 C4.411879286170006 0.0019388872385093237 5.094686955213547 0.001084462404264741 5.798185765743256 0.0002041459083557129 C8.102968187360545 -0.0014526012137707767 10.407678998196957 0.004073860381481609 12.712454795837402 0.009522438049316406 C14.357901555652177 0.009804294005846259 16.00334844149205 0.009646607613547076 17.648795127868652 0.009079933166503906 C22.130008873762165 0.00879189522163415 26.611196093508738 0.014689614916505889 31.092403650283813 0.02165389060974121 C35.77027233390879 0.02788640696769562 40.448141560977035 0.028491145919133487 45.12601375579834 0.029679298400878906 C53.99060296270517 0.03279291714636656 62.85517990215129 0.041006714627087604 71.7197636961937 0.0510287880897522 C81.80907330308406 0.06218897930932599 91.89838348224356 0.06770013732960933 101.98769772052765 0.07272422313690186 C122.74808909914896 0.08318930444164607 143.50846941834368 0.10078933384005495 164.2688512802124 0.1230478286743164 C164.34982451849163 2.393297509317449 164.4080283175241 4.664368582323448 164.4563512802124 6.935547828674316 C164.49115596771242 8.2001181411743 164.52596065521243 9.464688453674341 164.5618200302124 10.767579078674316 C164.2688512802124 14.123047828674316 164.2688512802124 14.123047828674316 162.91788387298584 16.024277687072754 C160.5763249664103 17.58448639527012 158.41093116150472 17.942308498602756 155.6477575302124 18.439454078674316 C154.5475426864624 18.646348609924303 153.4473278427124 18.85324314117429 152.3137731552124 19.066407203674316 C151.16457393646238 19.27072360992429 150.0153747177124 19.47504001617432 148.8313512802124 19.685547828674316 C146.5608562346652 20.098248954004475 144.29127456583035 20.516015263951033 142.0227575302124 20.939454078674316 C141.01543575286865 21.11935886383054 140.0081139755249 21.299263648986823 138.9702672958374 21.484620094299316 C136.38839995739113 22.094794797420604 134.45153770615474 22.615664242471553 132.2688512802124 24.123047828674316 C130.7466859103247 26.937780499974963 131.3335309569793 28.347575873700464 132.2244176864624 31.440186500549316 C132.7184642008914 32.74959025764156 133.22641493011582 34.053801090151865 133.7454137802124 35.353516578674316 C133.88220043182372 35.70600215911867 133.88220043182372 35.70600215911867 134.57442378997803 37.489792823791504 C137.64006595721503 45.27029318535301 141.1187366647921 52.85528763445336 144.6438512802124 60.435547828674316 C145.34554407070073 61.955940574315605 146.04661995378484 63.476618166147716 146.7471227645874 64.99755954742432 C148.1968073416191 68.14384859928731 149.6490800019452 71.28892228740278 151.1033239364624 74.43310642242432 C154.5361899212686 81.86064295789339 157.9322576483653 89.30501408574418 161.3313512802124 96.74804782867432 C161.9953753274251 98.20127177979396 162.6594378234364 99.65447816305505 163.3235387802124 101.10766696929932 C164.97557386309848 104.72286491996533 166.62690955874223 108.3383818541821 168.27806758880615 111.95398044586182 C169.27410281230152 114.1345447144862 170.27069860326196 116.31485209916514 171.2673864364624 118.49511814117432 C179.1007876218098 135.63454910894916 186.84959118336207 152.7990089023483 194.2688512802124 170.12304782867432 C197.14266653545974 166.64190905396833 199.01955736479636 162.7850893208822 200.9490270614624 158.73706150054932 C201.30664497375483 157.99658636093136 201.66426288604737 157.25611122131352 202.03271770477295 156.49319744110107 C202.81111620153388 154.88123752063984 203.58775409042187 153.26842650985134 204.36284160614014 151.6548719406128 C206.48752394402186 147.2344840606729 208.62833439180372 142.82193161272824 210.7698278427124 138.40966892242432 C210.99422636985776 137.94719147205353 210.99422636985776 137.94719147205353 212.1298189163208 135.60677528381348 C217.05059107276543 125.48420362003185 222.086136209389 115.41994256417172 227.1360387802124 105.36132907867432 C228.04941438926699 103.54036799724429 228.9627647733921 101.7193942630289 229.87609004974365 99.89840793609619 C233.57715788301402 92.52185957164397 237.2826264298726 85.14752753072548 240.9910192489624 77.77465915679932 C243.31167784538593 73.16025129213438 245.62834435066998 68.54385669911375 247.94265270233154 63.92626094818115 C248.80778179678214 62.202131884522544 249.6744185712355 60.47875834467658 250.5427122116089 58.75622081756592 C264.38675624967175 31.291341571459782 264.38675624967175 31.291341571459782 262.2688512802124 24.123047828674316 C255.17440119007244 21.16201675291677 248.22602121761668 19.367673446600975 240.6653356552124 18.162842750549316 C237.23250535904538 17.595617234242013 235.2158615054767 17.087721312183874 232.2688512802124 15.123047828674316 C230.802999087064 10.725491249229094 230.94593343535666 5.7198783260325285 231.2688512802124 1.1230478286743164 C233.1211302675165 -0.7292311586297728 236.17083864476695 -0.003167332939199241 238.6464147567749 -0.003935813903808594 C238.98338225603106 -0.004715809226013334 238.98338225603106 -0.004715809226013334 240.6886420249939 -0.008663058280944824 C242.96344708348693 -0.012675036064649703 245.23818626366779 -0.009482667139707246 247.5129919052124 -0.006346702575683594 C249.13711238185806 -0.007700656480210455 250.7612325516759 -0.00948055488998989 252.3853521347046 -0.011656761169433594 C256.8087803183114 -0.016231799189881713 261.2321852878358 -0.014441247531522095 265.65561389923096 -0.01127767562866211 C270.2742929695296 -0.008754435640128122 274.89296998755935 -0.011091510913729508 279.5116491317749 -0.012663841247558594 C287.26942459038696 -0.014485643284331218 295.02719054425165 -0.01207895079193122 302.7849645614624 -0.007323265075683594 C311.7673460241224 -0.0018806248468763442 320.7497047924537 -0.003643273984039297 329.73208570480347 -0.009149670600891113 C337.4297242922278 -0.013680499877352759 345.12735602841303 -0.014331497795751602 352.8249955177307 -0.0117110013961792 C357.4287872035227 -0.010148059824075517 362.0325682058233 -0.009954925458998787 366.6363592147827 -0.013247489929199219 C370.963516608198 -0.016125768038307342 375.29064460402515 -0.01415131633763167 379.6177988052368 -0.008353233337402344 C381.210585732093 -0.007025400759914646 382.80337511256903 -0.007420141159172999 384.39616107940674 -0.009615898132324219 C386.56123728723696 -0.012326509175636602 388.72621778435075 -0.008947408467292917 390.8912878036499 -0.003935813903808594 C392.1058339309693 -0.003558788299585558 393.3203800582885 -0.003181762695305679 394.5717306137085 -0.0027933120727539063 C397.2688512802124 0.1230478286743164 397.2688512802124 0.1230478286743164 398.2688512802124 1.1230478286743164 C398.4211303618051 2.868400379236448 398.4907482172339 4.621290236341508 398.5188512802124 6.373047828674316 C398.5446325302124 7.326954078674305 398.57041378021245 8.280860328674294 398.5969762802124 9.263672828674316 C398.20329433913173 12.694329743805838 397.34414921627604 14.370647051115384 395.2688512802124 17.123047828674316 C392.7761754989624 18.102051734924316 392.7761754989624 18.102051734924316 389.8235387802124 18.599610328674316 C388.7458825302124 18.79554782867433 387.66822628021237 18.991485328674344 386.5579137802124 19.193360328674316 C385.43127315521247 19.37640720367432 384.3046325302124 19.55945407867432 383.1438512802124 19.748047828674316 C366.52502205334076 22.62139680715211 366.52502205334076 22.62139680715211 361.2688512802124 25.123047828674316 C359.93076058243287 27.799229224233557 360.1425792409035 29.84811112248684 360.1429052352905 32.84457492828369 C360.1418924903869 34.03932249069214 360.1408797454834 35.234070053100595 360.13983631134033 36.46502208709717 C360.14518957138057 37.7654664802551 360.1505428314209 39.06591087341309 360.1560583114624 40.405762672424316 C360.15683663487437 40.74033808112142 360.15683663487437 40.74033808112142 360.1607754230499 42.43349242210388 C360.1966752770277 57.163397737536854 360.59886845560914 71.87782106937027 361.0735387802124 86.59961032867432 C361.1593201060173 89.35002040629604 361.2437294119766 92.10047222541823 361.3282079696655 94.85092258453369 C361.5050995149213 100.58723675222325 361.6852777381962 106.32343909248891 361.8679723739624 112.05957126617432 C362.05074218832544 117.79810406928175 362.2313154257248 123.53669862839286 362.4089879989624 129.27539157867432 C362.43066028356554 129.9752924847603 362.4523325681687 130.6751933908463 362.4746615886688 131.39630341529846 C362.51835776404505 132.80806954485445 362.56204360853303 134.21983599420423 362.60571908950806 135.63160276412964 C362.88836024429304 144.7676987200923 363.17245896794907 153.9037270031463 363.46947383880615 163.03936862945557 C363.5598719291869 165.82409615165557 363.65021170447926 168.60882556132526 363.7405309677124 171.39355564117432 C363.75168052434924 171.73667577028277 363.75168052434924 171.73667577028277 363.8081040382385 173.4730715751648 C364.10762073781757 182.7171229702451 364.37889855383673 191.96155371450163 364.6258363723755 201.20715618133545 C364.7577125246805 206.13432339450287 364.8990170391628 211.06120658486407 365.04291689395905 215.9880360364914 C365.1393792011097 219.31230046970666 365.2290300358086 222.63642623189708 365.30940532684326 225.9611406326294 C365.39782125089914 229.60072275984282 365.50349354443983 233.23942219592664 365.6130895614624 236.87841892242432 C365.63460205078127 237.95094787597657 365.65611454010013 239.02347682952882 365.67827892303467 240.12850666046143 C365.98815965678523 249.37712484431154 365.98815965678523 249.37712484431154 369.2688512802124 253.12304782867432 C372.2102575302124 254.38086032867432 372.2102575302124 254.38086032867432 375.8313512802124 255.24804782867432 C376.155107383728 255.32792942047126 376.155107383728 255.32792942047126 377.7935094833374 255.73217868804932 C383.88646569704656 257.17621580561797 390.07286503480884 258.1650258427044 396.2769079208374 258.9965829849243 C400.34541870289263 259.5868003708001 403.35422996777834 260.1051234823818 406.2688512802124 263.1230478286743 C407.3639161973274 266.4082425800191 407.36845736461214 268.8596819795015 407.3313512802124 272.3105478286743 C407.3223278427124 273.3972275161743 407.3133044052124 274.48390720367433 407.3040075302124 275.6035165786743 C407.29820674896246 276.01923923492427 407.29820674896246 276.01923923492427 407.2688512802124 278.1230478286743 C387.59816950170045 278.146375357436 367.92749051747705 278.16402628343917 348.25679779052734 278.17486000061035 C339.1240107957983 278.1800232694475 329.99123237937806 278.1870665521044 320.8584508895874 278.1984872817993 C312.9012725391277 278.2084331794242 304.94410039885497 278.2149010304331 296.9869160056114 278.217136323452 C292.7709914163472 278.21844359136276 288.55508459852274 278.22153045273853 284.33916568756104 278.228777885437 C280.3756294427865 278.23553661841333 276.41211838687434 278.23766509259804 272.44857692718506 278.23615550994873 C270.989631216783 278.23643190478197 269.530684712744 278.2384379003154 268.0717439651489 278.24225330352783 C266.08838533265475 278.24718818541487 264.1050133555784 278.24544593643986 262.12164974212646 278.2433023452759 C261.00904561042785 278.2442241382598 259.89644147872923 278.2451459312439 258.7501220703125 278.24609565734863 C256.2688512802124 278.1230478286743 256.2688512802124 278.1230478286743 255.2688512802124 277.1230478286743 C255.11669953663443 274.8349196848674 255.04698635648606 272.54105654497675 255.0188512802124 270.2480478286743 C254.99307003021238 268.9925009536744 254.96728878021236 267.73695407867433 254.9407262802124 266.4433603286743 C255.2688512802124 263.1230478286743 255.2688512802124 263.1230478286743 256.4900426864624 261.4819345474243 C258.69870241300646 259.7946712976378 260.31867100612806 259.4890908409859 263.0579137802124 259.0605478286743 C264.00021846771233 258.9032822036743 264.9425231552125 258.74601657867424 265.9133825302124 258.5839853286743 C266.8969372177123 258.4318759536743 267.88049190521247 258.2797665786743 268.8938512802124 258.1230478286743 C274.4267533294758 257.2466955577843 279.9465808531519 256.35451127365207 285.3547887802124 254.87304782867432 C286.0642565536499 254.68226657867433 286.7737243270874 254.49148532867434 287.5046911239624 254.29492282867432 C290.24579320556995 252.47409664659347 290.4282305395891 250.24469679358413 291.2688512802124 247.12304782867432 C291.5117712020874 243.8729257583617 291.5117712020874 243.8729257583617 291.4993200302124 240.23046970367432 C291.49926967620854 239.54225635528564 291.49921932220457 238.85404300689697 291.4991674423218 238.14497470855713 C291.4954716899655 235.793753127968 291.4761660781992 233.44293563179042 291.4563512802124 231.09179782867432 C291.44868211195023 229.3551053230633 291.4414568949903 227.61841081321313 291.4346227645874 225.88171482086182 C291.29614228804485 198.77360494408777 290.80669170488886 171.66555925701255 290.37808895111084 144.5607738494873 C290.2546720610271 136.74874819163028 290.13490089509366 128.93666770158234 290.01533603668213 121.12458229064941 C289.77036879041 105.12400972818068 289.52113366928654 89.12350683460261 289.2688512802124 73.12304782867432 C287.15751802040563 75.88416812043221 285.4500565746953 78.5329979775023 283.9211950302124 81.65820407867432 C283.4858947372436 82.54040622711182 283.0505944442749 83.42260837554932 282.6021032333374 84.33154392242432 C282.14150508880607 85.2733652114868 281.68090694427497 86.2151865005493 281.2063512802124 87.18554782867432 C277.2406436045735 95.21218777646556 273.19213558020795 103.18163958227376 268.9697790145874 111.07641696929932 C266.5283016682231 115.661578549085 264.1739776810755 120.28681068704441 261.8567419052124 124.93579196929932 C261.13773494225995 126.37601936314775 260.41863855318877 127.81620211490099 259.6994695663452 129.25634860992432 C259.30933996200565 130.03775714874268 258.9192103576661 130.81916568756105 258.517258644104 131.62425327301025 C256.2381274901552 136.18613001601398 253.95373332139707 140.7453713857892 251.6699743270874 145.30493259429932 C246.59516002197483 155.43826543582543 241.5223307137028 165.57259072715624 236.45070838928223 175.70752143859863 C233.4026580093789 181.79848298231855 230.35385194197204 187.88906407113757 227.3032751083374 193.97876071929932 C224.3225131932527 199.92909749613273 221.34395436561772 205.88053255768511 218.36663913726807 211.832594871521 C217.24605954349272 214.07193408670742 216.12478725370966 216.31092683802285 215.0027437210083 218.54953289031982 C208.86018798593363 230.8058148050942 202.7772285067656 243.0799947008635 196.9886417388916 255.50848579406738 C188.4594758302623 273.6152763944474 188.4594758302623 273.6152763944474 178.5188512802124 277.9355478286743 C172.39603237175265 279.98429220531 166.60347965300923 279.8119545616307 160.4563512802124 277.9980478286743 C153.77537223038019 274.06806015230245 151.2053425368922 268.39708377782495 148.5188512802124 261.4394540786743 C148.1842287826538 260.60065204620355 147.8496062850952 259.7618500137329 147.50484371185303 258.897629737854 C146.78893377404745 257.09973762593415 146.078022994099 255.2998481672571 145.37169551849365 253.49816989898682 C143.8709234613583 249.6706986533777 142.34557721854367 245.85317921453156 140.82149410247803 242.03494358062744 C140.0518609074735 240.10629216149675 139.28344884514632 238.17715299918643 138.51625728607178 236.2475290298462 C135.3999576037388 228.41599011946278 132.17859477633226 220.63539014011747 128.8938512802124 212.87304782867432 C127.85020011420761 210.39937392368347 126.8069899055264 207.92552298009923 125.7649450302124 205.45117282867432 C125.4952137374878 204.81078571319586 125.2254824447632 204.17039859771728 124.94757747650146 203.51060581207275 C107.71220725142189 162.52673874869697 90.96479642413863 121.32923052926355 74.2688512802124 80.12304782867432 C73.1532721976721 82.35420599375493 73.09560477250761 83.67030933799106 73.0034704208374 86.14788913726807 C72.96988430023191 86.9907698440552 72.93629817962648 87.83365055084226 72.90169429779053 88.702073097229 C72.88557598114016 89.16582592010496 72.88557598114016 89.16582592010496 72.8040075302124 91.51269626617432 C72.76645351409911 92.48892444610595 72.72889949798582 93.4651526260376 72.69020748138428 94.47096347808838 C72.56617293278606 97.7246332986789 72.44874014375694 100.97850697960394 72.3313512802124 104.23242282867432 C72.2458788685642 106.51183584939304 72.16001656035633 108.79123428020898 72.0737829208374 111.07061862945557 C71.84648139213914 117.10884164644972 71.62482977968841 123.14725997834853 71.4042272567749 129.18573093414307 C71.18303251565891 135.21054513389072 70.95607065876004 141.2351417085116 70.7297887802124 147.25976657867432 C70.2675490264885 159.59933366169412 69.81564451007125 171.93925724575865 69.3712911605835 184.27948093414307 C69.27680314736551 186.9023167412854 69.18182790286659 189.52513448551804 69.08678340911865 192.14795017242432 C68.58772137053904 205.97283512800368 68.09742295038586 219.7874055403688 68.1438512802124 233.62304782867432 C68.13998409271238 234.8682822036743 68.13611690521242 236.1135165786743 68.1321325302124 237.39648532867432 C68.137922506819 242.7811635728085 68.27276054174035 247.817158333973 69.2688512802124 253.12304782867432 C76.3155589199331 255.71298958945124 83.16793549935221 257.0810352383928 90.5813512802124 258.1855478286743 C92.70336961458457 258.5036589456272 94.8245181792563 258.82764147793046 96.9446325302124 259.1582040786743 C97.87187129974365 259.2962143325806 98.79911006927489 259.43422458648683 99.7544469833374 259.5764169692993 C102.24264135201292 260.1173497969005 104.10454674806545 260.7908626395857 106.2688512802124 262.1230478286743 C107.70202025641873 264.989385781087 107.40085489160515 267.49540283928127 107.3938512802124 270.6855478286743 C107.39514034271241 271.2740048599243 107.39514034271241 271.2740048599243 107.4016637802124 274.2519540786743 C107.2688512802124 277.1230478286743 107.2688512802124 277.1230478286743 106.2688512802124 278.1230478286743 C104.74031637923053 278.22103171098865 103.20726163538723 278.24936613536715 101.6755895614624 278.25003147125244 C100.6827898788452 278.25285129547115 99.689990196228 278.25567111968996 98.66710567474365 278.25857639312744 C97.56888484954834 278.25655216217046 96.47066402435303 278.2545279312134 95.3391637802124 278.2524423599243 C94.18970272064212 278.2541946792603 93.04024166107178 278.2559469985962 91.85594844818115 278.25775241851807 C88.03523428386006 278.2621737314673 84.21456596067173 278.25923195590246 80.3938512802124 278.2558603286743 C77.75208686625126 278.2565332873204 75.11032251244052 278.2575032440916 72.4685583114624 278.2587594985962 C66.92346857041537 278.2605810364896 61.37839212910825 278.25817530020254 55.8333044052124 278.2534189224243 C49.41390383857504 278.2479763285676 42.99453502766795 278.2497389965689 36.575135231018066 278.2552453279495 C30.410841453023863 278.2603220868684 24.246561803682994 278.2597949394619 18.082266807556152 278.2568635940552 C15.453889484237038 278.25619404561417 12.825511356812967 278.2570237106993 10.197134971618652 278.25934314727783 C6.530914047477268 278.26186802276175 2.8647550625289 278.2580313980459 -0.8014612197875977 278.2524423599243 C-1.8996820449829102 278.2544665908813 -2.9979028701782227 278.2564908218384 -4.129403114318848 278.25857639312744 C-5.122202796936051 278.25575656890874 -6.115002479553198 278.2529367446899 -7.137887001037598 278.25003147125244 C-8.005838966369652 278.2496544456483 -8.873790931701649 278.2492774200439 -9.768044471740723 278.2488889694214 C-11.731148719787598 278.1230478286743 -11.731148719787598 278.1230478286743 -12.731148719787598 277.1230478286743 C-13.141741611951375 271.96676499684986 -13.443871375684694 266.69184388071153 -10.731148719787598 262.1230478286743 C-7.613634226150225 260.04470483291607 -5.811047666621164 259.59692783421156 -2.1803674697875977 258.9394540786743 C-1.089176063537593 258.7338486099243 0.0020153427124114387 258.52824314117424 1.1262731552124023 258.3164072036743 C3.4176283162059917 257.898030879762 5.709292990703489 257.48134593134387 8.001273155212402 257.0664072036743 C19.86881738607309 254.8242166809514 19.86881738607309 254.8242166809514 23.268851280212402 252.12304782867432 C26.063403437093598 246.18531631486712 26.836219317365817 239.9973809928723 27.261038780212402 233.52539157867432 C27.331952323913583 232.58024188995364 27.402865867614764 231.63509220123296 27.47592830657959 230.661301612854 C27.711340839829177 227.46182909570007 27.92816978777637 224.2614074011659 28.143851280212402 221.06054782867432 C28.3089080971792 218.72768674806161 28.4741997294326 216.39484227191338 28.639700889587402 214.06201267242432 C31.07987942011505 178.9989352600819 32.92447225008078 143.8936901208058 34.84661865234375 108.79931735992432 C35.19363866978523 102.47135216079619 35.547034215401595 96.1437658412882 35.904052734375 89.81635761260986 C36.2353689061801 83.94425037040367 36.56219667990683 78.07190220542418 36.88649654388428 72.19940280914307 C37.01394904527763 69.9010260017144 37.142739702632014 67.60272290909609 37.27303218841553 65.30450534820557 C37.83697853446449 55.321858091478134 38.3729426914328 45.33655525747753 38.5305700302124 35.337891578674316 C38.55126049041746 34.64208484649657 38.57195095062258 33.94627811431883 38.593268394470215 33.22938632965088 C38.60835932830855 30.411853089681813 38.5883456921494 28.573194194298594 36.9297399520874 26.236329078674316 C34.395433794202006 24.537602622705265 31.843722526650424 23.94417917571633 28.893851280212402 23.185547828674316 C28.255523643493632 23.0200644302368 27.61719600677492 22.85458103179934 26.959525108337402 22.684082984924316 C20.092649076889074 20.96513631290196 13.126932300951864 19.71226799825422 6.152152061462402 18.517823219299316 C5.287029991149893 18.36434421539309 4.421907920837384 18.210865211486805 3.5305700302124023 18.052735328674316 C3.1436498641967887 17.98691257476804 3.1436498641967887 17.98691257476804 1.1855993270874023 17.653809547424316 C-0.7311487197875977 17.123047828674316 -0.7311487197875977 17.123047828674316 -2.7311487197875977 15.123047828674316 C-3.1803674697875977 11.900391578674316 -3.1803674697875977 11.900391578674316 -3.4186487197875977 8.060547828674316 C-3.5050159072876 6.790821266174305 -3.591383094787602 5.521094703674294 -3.6803674697875977 4.212891578674316 C-3.6971252822875726 3.193243141174321 -3.7138830947876045 2.1735947036743255 -3.7311487197875977 1.1230478286743164 C-2.7311487197875977 0.1230478286743164 -2.7311487197875977 0.1230478286743164 0 0 Z " fill="currentColor" transform="translate(314.7311487197876,413.8769521713257)"/>
<path d="M0 0 C2.3623046875 0.2041015625 2.3623046875 0.2041015625 5 1 C6.2861328125 3.0537109375 6.2861328125 3.0537109375 7.203125 5.734375 C7.373281249999991 6.2177734375 7.373281249999991 6.2177734375 8.234375 8.6640625 C8.569531249999955 9.682421874999989 8.904687500000023 10.700781249999977 9.25 11.75 C9.600625000000036 12.75289062500002 9.951249999999959 13.755781249999984 10.3125 14.7890625 C17.620610021232324 35.98258156157374 14.39054098075087 55.833411711081055 5.3671875 75.84375 C4.061917952366684 78.85705798425056 2.9897006929554664 81.87066066608372 2 85 C1.3400000000000318 85 0.6800000000000068 85 0 85 C-1.556885151587835 80.71636684280645 -3.104805948630883 76.42963606269495 -4.644775390625 72.139892578125 C-5.169060278327095 70.68329449621535 -5.695715596365801 69.22754722698437 -6.224853515625 67.772705078125 C-6.988302760197826 65.67232021016264 -7.7429622543743335 63.5689469499992 -8.49609375 61.46484375 C-8.613818893432608 61.143864669799825 -8.613818893432608 61.143864669799825 -9.209579467773438 59.51951599121094 C-15.176265369099099 42.712870776459226 -12.506884388452079 25.619502605945343 -5.109375 9.88671875 C-3.4845451170675688 6.548641260816794 -1.7696289976628918 3.2638690446808596 0 0 Z " fill="currentColor" transform="translate(511,445)"/>
</svg>